<svg width="30" height="30" viewBox="0 0 30 30" fill="none" xmlns="http://www.w3.org/2000/svg">
<g clip-path="url(#clip0_1_128)">
<path d="M17.2659 3.92328C19.1901 4.22129 20.975 4.89832 22.4274 5.88091C23.8321 6.83122 24.8648 8.02187 25.4141 9.32443C25.5084 9.54851 25.7256 9.68309 25.9543 9.68309C26.0303 9.68309 26.1074 9.66821 26.1818 9.63685C26.48 9.51097 26.6196 9.16742 26.494 8.86919C25.8563 7.35697 24.6771 5.98802 23.0841 4.91022C21.4893 3.83127 19.5394 3.08947 17.4451 2.76514C17.1259 2.7157 16.826 2.93474 16.7766 3.25472C16.7269 3.57424 16.946 3.87362 17.2659 3.92328V3.92328Z" fill="white"/>
<path d="M5.87993 8.31873C5.97263 8.5412 6.20861 8.69112 6.44939 8.67968C6.6872 8.66823 6.90555 8.5 6.97788 8.27318C7.05112 8.04361 6.96918 7.77559 6.77692 7.62933C6.57802 7.47827 6.28574 7.47278 6.08158 7.61697C5.86437 7.77032 5.77945 8.07359 5.87993 8.31873Z" fill="white"/>
<path d="M8.703 6.13683C8.79662 6.36182 9.03671 6.51334 9.28047 6.49778C9.51553 6.48244 9.72931 6.3149 9.80141 6.09083C9.87488 5.86286 9.79248 5.59736 9.60343 5.45041C9.40361 5.29546 9.10629 5.28905 8.90121 5.4376C8.6879 5.59209 8.60138 5.89307 8.703 6.13683Z" fill="white"/>
<path d="M11.7357 8.31873C11.8284 8.5412 12.0646 8.69112 12.3054 8.67968C12.5432 8.66823 12.762 8.5 12.8343 8.27318C12.9076 8.04338 12.8252 7.77536 12.6327 7.62933C12.4338 7.47827 12.1417 7.47278 11.9373 7.61697C11.7204 7.77032 11.6352 8.07359 11.7357 8.31873Z" fill="white"/>
<path d="M30 18.7463C30 17.4561 29.171 16.3566 28.0181 15.9503V14.4841C28.2035 14.4157 28.382 14.3255 28.5498 14.2129C29.217 13.7645 29.5997 13.0568 29.5997 12.2706C29.5997 11.7789 29.4477 11.3136 29.1653 10.9222C29.3081 10.5837 29.3511 10.2079 29.2818 9.83757C28.7801 7.15416 27.057 4.6978 24.4302 2.92053C21.8138 1.15059 18.4648 0.175781 15 0.175781C11.5352 0.175781 8.18619 1.15059 5.56984 2.92053C2.94296 4.69757 1.21994 7.15416 0.718231 9.83757C0.631256 10.302 0.720749 10.7748 0.962906 11.172C0.780487 11.5066 0.685501 11.8792 0.685501 12.2706C0.685501 13.0568 1.06819 13.765 1.73561 14.2131C1.81526 14.2667 1.89789 14.3145 1.98189 14.3582V15.9503C0.82901 16.3566 0 17.4561 0 18.7463V18.8654C0 19.72 0.364151 20.4909 0.944824 21.0324C0.775452 21.3583 0.685501 21.7209 0.685501 22.0942C0.685501 22.6808 0.898819 23.2235 1.28403 23.6476V25.762C1.28403 28.0209 3.12172 29.8588 5.38078 29.8588H24.6192C26.8783 29.8588 28.716 28.0209 28.716 25.762V23.9133C29.2797 23.4641 29.5997 22.812 29.5997 22.094C29.5997 21.6438 29.4729 21.2176 29.236 20.8491C29.7105 20.3236 30 19.6278 30 18.8654V18.7463ZM28.8281 18.7463V18.8654C28.8281 19.4703 28.5265 20.0059 28.0659 20.3307C27.7659 20.5421 27.4031 20.6575 27.036 20.6575H17.9501L21.6866 16.9542H27.0358C28.0241 16.9542 28.8281 17.7583 28.8281 18.7463ZM8.88084 16.9542L8.97377 17.0473L9.57481 17.6482L8.31665 18.9066L6.36429 16.9542H8.88084ZM14.4131 20.8292L10.8183 17.2346C10.8186 17.2348 10.8183 17.2343 10.8183 17.2346L10.5382 16.9542H20.0194L16.1034 20.8269C16.1032 20.8271 16.103 20.8273 16.1028 20.8278C16.1023 20.8282 16.1016 20.8287 16.1012 20.8292L15.257 21.6733L14.4131 20.8292ZM1.86996 10.0527C2.31377 7.67967 3.86101 5.49133 6.2265 3.89099C8.65105 2.25082 11.7668 1.34766 15 1.34766C18.2332 1.34766 21.349 2.25082 23.7735 3.89099C26.139 5.49133 27.686 7.67967 28.13 10.0527C28.2122 10.4929 27.8606 10.9133 27.4139 10.9133H2.58614C2.13867 10.9133 1.7878 10.4929 1.86996 10.0527ZM1.90063 11.9577C2.1183 12.0419 2.35291 12.0852 2.58614 12.0852H27.4139C27.7373 12.0852 28.0625 12.0014 28.3445 11.8428C28.3997 11.9783 28.4278 12.1241 28.4278 12.2704C28.4278 12.6597 28.2342 13.0131 27.8963 13.2399C27.551 13.472 27.1111 13.5276 26.716 13.4026C26.5208 13.3408 26.3365 13.2612 26.1351 13.2182C25.9172 13.1715 25.6943 13.1509 25.4716 13.1509C24.4249 13.1509 23.8632 13.5473 23.4121 13.8657C23.0161 14.1454 22.7035 14.3662 22.0287 14.3662C21.354 14.3662 21.0413 14.1454 20.6454 13.8659C20.1942 13.5471 19.6328 13.1509 18.5859 13.1509C17.5392 13.1509 16.9778 13.5473 16.5266 13.8659C16.1307 14.1454 15.818 14.3662 15.1433 14.3662C14.4685 14.3662 14.1557 14.1454 13.7597 13.8657C13.3086 13.5471 12.7471 13.1509 11.7004 13.1509C10.6538 13.1509 10.0921 13.5473 9.64096 13.8657C9.245 14.1454 8.93211 14.3662 8.2576 14.3662C7.58263 14.3662 7.26997 14.1454 6.87378 13.8657C6.42265 13.5471 5.86121 13.1509 4.8143 13.1509C4.40025 13.1509 4.02695 13.2211 3.67287 13.3656C3.2547 13.5363 2.76535 13.493 2.38907 13.2401C2.05124 13.0133 1.8576 12.6599 1.8576 12.2706C1.85738 12.1628 1.87202 12.058 1.90063 11.9577ZM3.27026 14.6377C3.57765 14.6228 3.86604 14.5452 4.15215 14.4363C4.43756 14.3273 4.74884 14.3058 5.05119 14.3328C5.56847 14.3788 5.85136 14.5786 6.19789 14.8231C6.64902 15.1417 7.21046 15.5381 8.25737 15.5381C9.30405 15.5381 9.86549 15.1417 10.3166 14.8231C10.7126 14.5436 11.0255 14.3227 11.7002 14.3227C12.375 14.3227 12.6876 14.5436 13.0836 14.8231C13.5347 15.1417 14.0964 15.5381 15.1431 15.5381C16.1897 15.5381 16.7512 15.1417 17.2023 14.8231C17.5983 14.5436 17.9111 14.3227 18.5857 14.3227C19.2604 14.3227 19.5733 14.5436 19.9693 14.8231C20.4204 15.1417 20.9818 15.5381 22.0285 15.5381C23.0752 15.5381 23.6366 15.1417 24.0878 14.8231C24.4839 14.5436 24.7966 14.3227 25.4713 14.3227C25.7108 14.3227 25.9458 14.3626 26.169 14.4502C26.3866 14.5358 26.6132 14.5974 26.846 14.6246V15.7825H21.4455C21.4458 15.7825 21.4453 15.7825 21.4455 15.7825H9.12529C9.12483 15.7825 9.12415 15.7825 9.12369 15.7825C9.123 15.7825 9.12231 15.7825 9.12186 15.7825H3.15376V14.6409C3.19267 14.6407 3.23135 14.6395 3.27026 14.6377ZM1.17188 18.7463C1.17188 17.7583 1.97594 16.9542 2.96402 16.9542H4.70718L7.90237 20.1496C8.01224 20.2595 8.16124 20.321 8.31665 20.321C8.47206 20.321 8.62106 20.2595 8.73093 20.1496L10.4036 18.4769L12.5842 20.6575H2.96402C2.65434 20.6575 2.3465 20.5756 2.07779 20.422C1.53717 20.1132 1.17188 19.5314 1.17188 18.8654V18.7463ZM1.95419 21.652C2.27669 21.769 2.62093 21.8294 2.96402 21.8294H13.756L14.8428 22.9161C15.0675 23.1411 15.444 23.1416 15.6695 22.9179L16.7679 21.8294H27.0358C27.3663 21.8294 27.6963 21.7733 28.0085 21.6653C28.074 21.6426 28.1408 21.6197 28.2024 21.5881C28.2223 21.5778 28.2511 21.5549 28.2747 21.5565C28.3072 21.5588 28.3157 21.6003 28.3273 21.6264C28.3907 21.7662 28.4246 21.9193 28.4274 22.0729C28.4372 22.6257 28.0392 23.0882 27.5194 23.2388C27.2216 23.3253 26.8991 23.3061 26.6121 23.1889C26.2587 23.0445 25.8854 22.9742 25.4713 22.9742C24.4247 22.9742 23.8632 23.3707 23.4121 23.6893C23.0159 23.969 22.7032 24.1898 22.0285 24.1898C21.354 24.1898 21.0411 23.969 20.6451 23.6893C20.194 23.3707 19.6326 22.9742 18.5859 22.9742C17.5392 22.9742 16.9778 23.3707 16.5264 23.6893C16.1304 23.969 15.8178 24.1898 15.1431 24.1898C14.4683 24.1898 14.1557 23.969 13.7595 23.6893C13.3083 23.3707 12.7469 22.9742 11.7002 22.9742C10.6535 22.9742 10.0921 23.3707 9.64073 23.6893C9.24477 23.969 8.93211 24.1898 8.25737 24.1898C7.5824 24.1898 7.26974 23.9687 6.87378 23.6893C6.42242 23.3707 5.86098 22.9742 4.81407 22.9742C4.40002 22.9742 4.02672 23.0445 3.67287 23.1892C3.29041 23.3453 2.84454 23.3247 2.4836 23.1214C2.16431 22.9417 1.9265 22.6337 1.87065 22.2677C1.85394 22.1594 1.85303 22.0486 1.86745 21.9399C1.87157 21.9083 1.92535 21.6415 1.95419 21.652ZM27.5441 25.762C27.5441 27.3747 26.2319 28.6869 24.6192 28.6869H5.38078C3.76808 28.6869 2.4559 27.3747 2.4559 25.762V24.3723C2.93701 24.5087 3.45634 24.4991 3.95119 24.3345C3.96126 24.3311 3.97133 24.3276 3.98117 24.3244C4.02626 24.3086 4.07135 24.2924 4.11575 24.2741C4.32632 24.188 4.55475 24.1463 4.81407 24.1463C5.48904 24.1463 5.8017 24.367 6.19766 24.6467C6.64902 24.9653 7.21046 25.3617 8.25737 25.3617C9.30405 25.3617 9.86549 24.9653 10.3166 24.6467C10.7126 24.367 11.0255 24.1463 11.7 24.1463C12.3747 24.1463 12.6876 24.367 13.0836 24.6467C13.5347 24.9653 14.0961 25.3617 15.1431 25.3617C16.1897 25.3617 16.7512 24.9653 17.2023 24.6467C17.5983 24.367 17.9111 24.1463 18.5857 24.1463C19.2604 24.1463 19.5733 24.367 19.969 24.6467C20.4202 24.9653 20.9818 25.3617 22.0285 25.3617C23.0752 25.3617 23.6366 24.9653 24.0878 24.6467C24.4837 24.367 24.7966 24.1463 25.4713 24.1463C25.646 24.1463 25.8211 24.1658 25.9898 24.2127C26.1502 24.2574 26.3017 24.3279 26.4622 24.3732C26.8105 24.4714 27.1866 24.4922 27.5439 24.4341L27.5441 25.762Z" fill="white"/>
<path d="M13.2369 6.13676C13.3296 6.35923 13.5658 6.5103 13.8068 6.49794C14.0446 6.4858 14.2627 6.31826 14.3353 6.09167C14.409 5.86187 14.3264 5.59431 14.1343 5.44759C13.9359 5.29584 13.6431 5.29012 13.4392 5.435C13.2229 5.58836 13.1346 5.89163 13.2369 6.13676Z" fill="white"/>
<path d="M15.8801 8.71947C15.9728 8.94217 16.2088 9.09186 16.4495 9.08042C16.6876 9.06897 16.9052 8.90052 16.9782 8.67415C17.0522 8.44459 16.9693 8.17634 16.7771 8.03008C16.5782 7.87879 16.2859 7.87376 16.0817 8.01772C15.8647 8.17107 15.7796 8.47434 15.8801 8.71947V8.71947Z" fill="white"/>
<path d="M14.3841 3.45836C14.5926 3.5973 14.8858 3.58356 15.0797 3.42472C15.2692 3.26954 15.345 2.99465 15.2575 2.76531C15.1724 2.54261 14.9467 2.38399 14.7075 2.38514C14.4709 2.38651 14.2459 2.54192 14.1621 2.76348C14.0685 3.01159 14.1642 3.31051 14.3841 3.45836V3.45836Z" fill="white"/>
</g>
<defs>
<clipPath id="clip0_1_128">
<rect width="30" height="30" fill="white"/>
</clipPath>
</defs>
</svg>
