<svg width="30" height="30" viewBox="0 0 30 30" fill="none" xmlns="http://www.w3.org/2000/svg">
<g clip-path="url(#clip0_1_106)">
<path d="M23.1248 11.8745H5.62439C4.5906 11.8745 3.74935 12.7158 3.74935 13.7496V14.9996C3.74935 19.4597 6.21316 23.5048 10.1782 25.5561C10.4845 25.7136 10.862 25.5948 11.0208 25.2873C11.1783 24.981 11.0595 24.6036 10.752 24.4448C7.20441 22.6097 4.99936 18.9909 4.99936 14.9995V13.7495C4.99936 13.4045 5.27938 13.1245 5.62439 13.1245H23.1248C23.4698 13.1245 23.7499 13.4045 23.7499 13.7495V14.9995C23.7499 18.9908 21.5448 22.6097 17.996 24.4435C17.6885 24.6022 17.5697 24.9797 17.7272 25.286C17.8385 25.501 18.0572 25.6248 18.2835 25.6248C18.381 25.6248 18.4785 25.6022 18.5697 25.5547C22.5361 23.5047 24.9999 19.4608 24.9999 14.9995V13.7494C24.9999 12.7158 24.1586 11.8745 23.1248 11.8745Z" fill="black"/>
<path d="M28.7037 24.7598C28.6062 24.5261 28.3787 24.3735 28.1262 24.3735H0.625568C0.373081 24.3735 0.145557 24.5261 0.0480543 24.7598C-0.049448 24.9935 0.00428373 25.2623 0.183057 25.4411L1.58436 26.8436C2.4119 27.6699 3.50939 28.1249 4.67818 28.1249H24.0711C25.2399 28.1249 26.3387 27.6699 27.1675 26.8436L28.5688 25.4411C28.7475 25.2623 28.8012 24.9935 28.7037 24.7598ZM26.2824 25.9598C25.6924 26.5498 24.9062 26.8748 24.0724 26.8748H4.67818C3.84443 26.8748 3.05814 26.5498 2.46815 25.9598L2.13316 25.6248H26.6174L26.2824 25.9598Z" fill="black"/>
<path d="M28.7912 14.8259C27.1074 13.7434 24.4174 14.9184 24.1161 15.0547C23.8023 15.1984 23.6623 15.5684 23.8061 15.8835C23.9498 16.1985 24.3186 16.3372 24.6348 16.1935C25.2374 15.9197 27.1699 15.271 28.1149 15.8797C28.5412 16.1535 28.7499 16.6847 28.7499 17.4997C28.7499 20.0023 23.7023 21.5148 21.7535 21.8873L21.311 21.9748C20.9722 22.0411 20.7522 22.3698 20.8185 22.7086C20.8772 23.0061 21.1385 23.2123 21.431 23.2123C21.471 23.2123 21.5109 23.2086 21.5522 23.1999L21.991 23.1136C22.3184 23.0511 29.9999 21.5448 29.9999 17.4997C30 16.2422 29.5925 15.3434 28.7912 14.8259Z" fill="black"/>
<path d="M19.241 6.63946C20.2573 5.36941 20.2573 3.38063 19.241 2.11058C19.0247 1.84057 18.6335 1.79557 18.3622 2.01308C18.0922 2.22935 18.0485 2.62182 18.2647 2.89183C18.9085 3.69558 18.9085 5.0544 18.2635 5.86067C17.246 7.13072 17.246 9.11949 18.2635 10.3895C18.3873 10.5445 18.5685 10.6246 18.7523 10.6246C18.8885 10.6246 19.0272 10.5796 19.1423 10.487C19.4123 10.2708 19.4561 9.87701 19.2398 9.6083C18.5948 8.80449 18.5948 7.44572 19.241 6.63946Z" fill="black"/>
<path d="M15.4859 6.63943C16.5034 5.36938 16.5034 3.3806 15.4859 2.11055C15.2709 1.84055 14.8771 1.79677 14.6071 2.01305C14.3371 2.22932 14.2934 2.62308 14.5096 2.8918C15.1546 3.69555 15.1546 5.05437 14.5084 5.86064C13.4921 7.13069 13.4921 9.11947 14.5084 10.3895C14.6322 10.5445 14.8134 10.6245 14.9971 10.6245C15.1334 10.6245 15.2709 10.5795 15.3872 10.487C15.6572 10.2707 15.7009 9.87827 15.4847 9.60827C14.8409 8.80446 14.8409 7.4457 15.4859 6.63943Z" fill="black"/>
<path d="M11.7408 6.64068C12.7571 5.37063 12.7571 3.38185 11.7408 2.1118C11.5258 1.8418 11.1333 1.79679 10.8621 2.0143C10.5933 2.22928 10.5496 2.62304 10.7646 2.89182C11.4084 3.69557 11.4084 5.05439 10.7633 5.86066C9.74583 7.13071 9.74583 9.11948 10.7633 10.3895C10.8871 10.5445 11.0683 10.6246 11.2521 10.6246C11.3883 10.6246 11.5271 10.5796 11.6421 10.4883C11.9121 10.2721 11.9559 9.87829 11.7396 9.60957C11.0946 8.80448 11.0946 7.44695 11.7408 6.64068Z" fill="black"/>
</g>
<defs>
<clipPath id="clip0_1_106">
<rect width="30" height="30" fill="white"/>
</clipPath>
</defs>
</svg>
