<svg width="12" height="12" viewBox="0 0 12 12" fill="none" xmlns="http://www.w3.org/2000/svg">
<path d="M0.875 0H2.125C2.6075 0 3 0.3925 3 0.875V1.058C3.756 0.672999 5.473 0 8.2655 0H9.0655C10.2245 0 11.2085 0.829 11.405 1.971L11.965 5.221C12.084 5.9145 11.8925 6.6195 11.4405 7.1565C10.989 7.6925 10.327 8 9.6255 8H7.3575C7.499 8.38 7.6405 8.934 7.6405 9.625C7.6405 11.5035 6.5775 12 6.0155 12C4.9775 12 4.8905 11.032 4.8905 10.125C4.8905 9.018 3.649 8.098 2.9935 7.689C2.96 8.141 2.5855 8.5 2.125 8.5H0.875C0.3925 8.5 0 8.1075 0 7.625V0.875C0 0.3925 0.3925 0 0.875 0ZM5.6405 10.125C5.6405 11.25 5.831 11.25 6.0155 11.25C6.3675 11.25 6.8905 10.817 6.8905 9.625C6.8905 8.517 6.4565 7.838 6.4535 7.833C6.377 7.718 6.3695 7.57 6.435 7.448C6.5 7.326 6.6275 7.25 6.7655 7.25H9.6255C10.1055 7.25 10.558 7.04 10.867 6.6735C11.1765 6.3065 11.3075 5.8235 11.226 5.349L10.666 2.099C10.5315 1.318 9.8585 0.7505 9.0655 0.7505H8.2655C4.864 0.75 3.16 1.814 3 1.9195V6.8245C3.4165 7.0455 5.6405 8.3105 5.6405 10.125ZM0.75 7.625C0.75 7.694 0.806 7.75 0.875 7.75H2.125C2.194 7.75 2.25 7.694 2.25 7.625V0.875C2.25 0.807 2.193 0.75 2.125 0.75H0.875C0.806 0.75 0.75 0.806 0.75 0.875V7.625Z" fill="#34495E"/>
</svg>
