<svg width="18" height="18" viewBox="0 0 18 18" fill="none" xmlns="http://www.w3.org/2000/svg">
<circle r="9" transform="matrix(1 8.74228e-08 8.74228e-08 -1 9 9)" fill="#D35400"/>
<g clip-path="url(#clip0_1_295)">
<path d="M3.875 3L5.125 3C5.6075 3 6 3.3925 6 3.875L6 4.058C6.756 3.673 8.473 3 11.2655 3L12.0655 3C13.2245 3 14.2085 3.829 14.405 4.971L14.965 8.221C15.084 8.9145 14.8925 9.6195 14.4405 10.1565C13.989 10.6925 13.327 11 12.6255 11L10.3575 11C10.499 11.38 10.6405 11.934 10.6405 12.625C10.6405 14.5035 9.5775 15 9.0155 15C7.9775 15 7.8905 14.032 7.8905 13.125C7.8905 12.018 6.649 11.098 5.9935 10.689C5.96 11.141 5.5855 11.5 5.125 11.5L3.875 11.5C3.3925 11.5 3 11.1075 3 10.625L3 3.875C3 3.3925 3.3925 3 3.875 3ZM8.6405 13.125C8.6405 14.25 8.831 14.25 9.0155 14.25C9.3675 14.25 9.8905 13.817 9.8905 12.625C9.8905 11.517 9.4565 10.838 9.4535 10.833C9.377 10.718 9.3695 10.57 9.435 10.448C9.5 10.326 9.6275 10.25 9.7655 10.25L12.6255 10.25C13.1055 10.25 13.558 10.04 13.867 9.6735C14.1765 9.3065 14.3075 8.8235 14.226 8.349L13.666 5.099C13.5315 4.318 12.8585 3.7505 12.0655 3.7505L11.2655 3.7505C7.864 3.75 6.16 4.814 6 4.9195L6 9.8245C6.4165 10.0455 8.6405 11.3105 8.6405 13.125ZM3.75 10.625C3.75 10.694 3.806 10.75 3.875 10.75L5.125 10.75C5.194 10.75 5.25 10.694 5.25 10.625L5.25 3.875C5.25 3.807 5.193 3.75 5.125 3.75L3.875 3.75C3.806 3.75 3.75 3.806 3.75 3.875L3.75 10.625Z" fill="white"/>
</g>
<defs>
<clipPath id="clip0_1_295">
<rect width="12" height="12" fill="white" transform="matrix(1 8.74228e-08 8.74228e-08 -1 3 15)"/>
</clipPath>
</defs>
</svg>
