<svg width="18" height="18" viewBox="0 0 18 18" fill="none" xmlns="http://www.w3.org/2000/svg">
<circle cx="9" cy="9" r="9" fill="#D35400"/>
<g clip-path="url(#clip0_1_275)">
<path d="M3.875 15H5.125C5.6075 15 6 14.6075 6 14.125V13.942C6.756 14.327 8.473 15 11.2655 15H12.0655C13.2245 15 14.2085 14.171 14.405 13.029L14.965 9.779C15.084 9.0855 14.8925 8.3805 14.4405 7.8435C13.989 7.3075 13.327 7 12.6255 7H10.3575C10.499 6.62 10.6405 6.066 10.6405 5.375C10.6405 3.4965 9.5775 3 9.0155 3C7.9775 3 7.8905 3.968 7.8905 4.875C7.8905 5.982 6.649 6.902 5.9935 7.311C5.96 6.859 5.5855 6.5 5.125 6.5H3.875C3.3925 6.5 3 6.8925 3 7.375V14.125C3 14.6075 3.3925 15 3.875 15ZM8.6405 4.875C8.6405 3.75 8.831 3.75 9.0155 3.75C9.3675 3.75 9.8905 4.183 9.8905 5.375C9.8905 6.483 9.4565 7.162 9.4535 7.167C9.377 7.282 9.3695 7.43 9.435 7.552C9.5 7.674 9.6275 7.75 9.7655 7.75H12.6255C13.1055 7.75 13.558 7.96 13.867 8.3265C14.1765 8.6935 14.3075 9.1765 14.226 9.651L13.666 12.901C13.5315 13.682 12.8585 14.2495 12.0655 14.2495H11.2655C7.864 14.25 6.16 13.186 6 13.0805V8.1755C6.4165 7.9545 8.6405 6.6895 8.6405 4.875ZM3.75 7.375C3.75 7.306 3.806 7.25 3.875 7.25H5.125C5.194 7.25 5.25 7.306 5.25 7.375V14.125C5.25 14.193 5.193 14.25 5.125 14.25H3.875C3.806 14.25 3.75 14.194 3.75 14.125V7.375Z" fill="white"/>
</g>
<defs>
<clipPath id="clip0_1_275">
<rect width="12" height="12" fill="white" transform="translate(3 3)"/>
</clipPath>
</defs>
</svg>
