<svg width="12" height="12" viewBox="0 0 12 12" fill="none" xmlns="http://www.w3.org/2000/svg">
<g clip-path="url(#clip0_1_269)">
<path d="M0.875 12H2.125C2.6075 12 3 11.6075 3 11.125V10.942C3.756 11.327 5.473 12 8.2655 12H9.0655C10.2245 12 11.2085 11.171 11.405 10.029L11.965 6.779C12.084 6.0855 11.8925 5.3805 11.4405 4.8435C10.989 4.3075 10.327 4 9.6255 4H7.3575C7.499 3.62 7.6405 3.066 7.6405 2.375C7.6405 0.4965 6.5775 0 6.0155 0C4.9775 0 4.8905 0.968 4.8905 1.875C4.8905 2.982 3.649 3.902 2.9935 4.311C2.96 3.859 2.5855 3.5 2.125 3.5H0.875C0.3925 3.5 0 3.8925 0 4.375V11.125C0 11.6075 0.3925 12 0.875 12ZM5.6405 1.875C5.6405 0.75 5.831 0.75 6.0155 0.75C6.3675 0.75 6.8905 1.183 6.8905 2.375C6.8905 3.483 6.4565 4.162 6.4535 4.167C6.377 4.282 6.3695 4.43 6.435 4.552C6.5 4.674 6.6275 4.75 6.7655 4.75H9.6255C10.1055 4.75 10.558 4.96 10.867 5.3265C11.1765 5.6935 11.3075 6.1765 11.226 6.651L10.666 9.901C10.5315 10.682 9.8585 11.2495 9.0655 11.2495H8.2655C4.864 11.25 3.16 10.186 3 10.0805V5.1755C3.4165 4.9545 5.6405 3.6895 5.6405 1.875ZM0.75 4.375C0.75 4.306 0.806 4.25 0.875 4.25H2.125C2.194 4.25 2.25 4.306 2.25 4.375V11.125C2.25 11.193 2.193 11.25 2.125 11.25H0.875C0.806 11.25 0.75 11.194 0.75 11.125V4.375Z" fill="#34495E"/>
</g>
<defs>
<clipPath id="clip0_1_269">
<rect width="12" height="12" fill="white"/>
</clipPath>
</defs>
</svg>
