<svg width="30" height="30" viewBox="0 0 30 30" fill="none" xmlns="http://www.w3.org/2000/svg">
<g clip-path="url(#clip0_1_140)">
<path d="M29.9905 5.45798C29.9913 5.44075 29.9912 5.42346 29.9901 5.40624C29.9843 5.38802 29.9773 5.3702 29.9693 5.35286C29.9406 5.26737 29.8914 5.1902 29.8258 5.12827C29.8013 5.10806 29.7749 5.09024 29.747 5.07513C29.7222 5.05907 29.6959 5.04536 29.6686 5.03411C29.6345 5.02333 29.5993 5.01624 29.5636 5.01296C29.5424 5.0071 29.5208 5.00276 29.499 4.99989C29.4936 4.99989 29.4892 5.00276 29.484 5.00288C29.4783 5.003 29.4734 5.00054 29.4677 5.00083L11.991 6.09196C11.9252 4.56343 10.9376 3.22803 9.4954 2.71733C9.56325 2.382 9.70622 2.06647 9.91352 1.79436C10.4473 1.21968 11.2181 0.92601 11.999 0.999955C12.2751 0.999955 12.499 0.776128 12.499 0.499978C12.499 0.223827 12.2752 0 11.999 0C10.7154 0 9.75052 0.394041 9.13136 1.17087C8.82597 1.56544 8.61504 2.0247 8.51455 2.51342C8.42648 2.50721 8.33865 2.49995 8.249 2.49995C6.3981 2.50317 4.82598 3.8555 4.54625 5.6852C4.05131 5.24434 3.41182 5.00054 2.74902 4.99995C1.51914 5.00335 0.441549 5.82401 0.111199 7.00865C0.0406528 7.09402 0.00110228 7.20072 -0.00100708 7.31146V24.0658C-0.000889893 27.3378 2.91489 29.9998 6.49911 29.9998C6.52894 29.9967 6.55841 29.9907 6.58712 29.9821C6.67331 30.0077 6.76542 30.0057 6.85044 29.9764L29.6504 22.7313C29.658 22.7289 29.663 22.7229 29.6705 22.7202C29.7031 22.7065 29.7342 22.6893 29.763 22.6688C29.8742 22.6102 29.9521 22.5034 29.9738 22.3796C29.9843 22.3464 29.9913 22.3121 29.9944 22.2773C29.9948 22.2694 29.999 22.2627 29.999 22.2547V5.49999C29.9989 5.48505 29.9918 5.47251 29.9905 5.45798ZM5.76183 5.07208C6.21605 4.11015 7.18536 3.4975 8.24912 3.49996C8.30256 3.49996 8.35482 3.50494 8.4075 3.50799C8.40346 3.87853 8.43844 4.24849 8.5118 4.61177C8.56388 4.8387 8.76574 4.99972 8.99859 4.99995C9.03638 5.00007 9.07406 4.99579 9.11091 4.98724C9.38003 4.92548 9.54814 4.6573 9.48644 4.38818C9.48644 4.38818 9.48644 4.38818 9.48644 4.38812C9.44724 4.18164 9.42316 3.97257 9.41431 3.76263C10.7845 4.40962 11.3707 6.04491 10.7238 7.41511C10.0768 8.78532 8.44148 9.37155 7.07128 8.72456C5.70107 8.07757 5.11478 6.44229 5.76183 5.07208ZM5.99908 28.9798C3.19977 28.7523 0.999124 26.6351 0.999124 24.0658V10.5585C2.13168 12.2455 3.97344 13.322 5.99908 13.4809V28.9798ZM6.43079 12.4966C3.5613 12.4613 1.14356 10.2294 1.0119 7.54015C1.01817 7.49591 1.02426 7.45109 1.03457 7.40281C1.19981 6.58695 1.91676 6.00038 2.74919 5.99996C3.50177 6.00161 4.1695 6.48283 4.40908 7.19627C4.45877 7.34146 4.5735 7.45513 4.71916 7.50341C5.40863 9.4534 7.54834 10.4752 9.49827 9.78574C10.7046 9.35918 11.6097 8.34628 11.8983 7.09976L25.603 6.24412L14.3441 9.91453C14.3369 9.91688 14.3322 9.92256 14.3253 9.9252C14.2931 9.93902 14.2625 9.95637 14.234 9.97687C14.1227 10.035 14.0451 10.1419 14.0242 10.2657C14.0134 10.2994 14.0064 10.3342 14.0033 10.3695C14.003 10.3768 13.9991 10.3829 13.9991 10.3902V13.0001C13.9991 13.2762 13.7753 13.5 13.4991 13.5C13.223 13.5 12.9992 13.2762 12.9992 13.0001V11.0449C12.9992 10.7687 12.7753 10.5449 12.4992 10.5449C12.223 10.5449 11.9992 10.7688 11.9992 11.0449V23.4999C11.9992 23.776 11.7754 23.9999 11.4992 23.9999C11.2231 23.9999 10.9993 23.776 10.9993 23.4999V11.6948C10.9868 11.6438 10.9785 11.5918 10.9746 11.5395C10.9723 11.5325 10.9667 11.5279 10.9642 11.521C10.9505 11.4893 10.9335 11.4592 10.9134 11.4311C10.8881 11.3761 10.846 11.3306 10.7932 11.301C10.7489 11.258 10.6921 11.2301 10.631 11.2214C10.5946 11.2094 10.5569 11.2018 10.5187 11.1987C10.5119 11.1984 10.5062 11.1948 10.4993 11.1948C10.4733 11.1978 10.4476 11.203 10.4224 11.2103C10.3962 11.2113 10.37 11.2144 10.3442 11.2197L6.43079 12.4966ZM6.99909 21.311V19.3624L9.99907 18.3836V20.3321L6.99909 21.311ZM9.99907 21.3835V23.3332L6.99909 24.3108V22.3624L9.99907 21.3835ZM6.99909 18.311V13.3625L9.99907 12.3836V17.3322L6.99909 18.311ZM28.999 21.889L6.99909 28.8798V25.363L10.2389 24.3072C10.6834 25.0046 11.609 25.2096 12.3064 24.7651C12.7386 24.4897 12.9999 24.0123 12.9991 23.4998V23.4078L28.999 18.1892V21.889ZM28.999 17.1368L12.9991 22.3556V20.4079L28.999 15.1892V17.1368ZM28.999 14.1368L12.9991 19.3556V17.4079L28.999 12.1892V14.1368ZM28.999 11.1368L12.9991 16.3556V14.4078C13.1592 14.4671 13.3283 14.4982 13.499 14.4999C14.3271 14.4991 14.9981 13.828 14.999 12.9999V10.7532L28.9989 6.18905V11.1368H28.999Z" fill="black"/>
</g>
<defs>
<clipPath id="clip0_1_140">
<rect width="30" height="30" fill="white"/>
</clipPath>
</defs>
</svg>
