<svg width="20" height="20" viewBox="0 0 20 20" fill="none" xmlns="http://www.w3.org/2000/svg">
<g clip-path="url(#clip0_1_99)">
<path d="M15.9211 3.4249C14.7073 1.33021 12.5514 0.0504883 10.1539 0.00158203C10.0516 -0.000527344 9.94857 -0.000527344 9.84619 0.00158203C7.44877 0.0504883 5.29283 1.33021 4.079 3.4249C2.8383 5.566 2.80436 8.13787 3.98818 10.3047L8.94768 19.3823C8.9499 19.3863 8.95213 19.3904 8.95443 19.3944C9.17264 19.7736 9.56354 20 10.0001 20C10.4367 20 10.8276 19.7736 11.0458 19.3944C11.0481 19.3904 11.0503 19.3863 11.0525 19.3823L16.012 10.3047C17.1958 8.13787 17.1618 5.566 15.9211 3.4249ZM10.0001 9.06252C8.44924 9.06252 7.18756 7.80084 7.18756 6.25002C7.18756 4.6992 8.44924 3.43752 10.0001 3.43752C11.5509 3.43752 12.8126 4.6992 12.8126 6.25002C12.8126 7.80084 11.5509 9.06252 10.0001 9.06252Z" fill="black"/>
</g>
<defs>
<clipPath id="clip0_1_99">
<rect width="20" height="20" fill="white"/>
</clipPath>
</defs>
</svg>
