<svg width="30" height="30" viewBox="0 0 30 30" fill="none" xmlns="http://www.w3.org/2000/svg">
<path d="M20.4754 14.0431C20.4754 10.0616 16.9735 6.82239 12.6692 6.82239C8.36483 6.82239 4.86298 10.0616 4.86298 14.0431C4.86298 18.0246 8.36483 21.2638 12.6692 21.2638C16.9735 21.2638 20.4754 18.0246 20.4754 14.0431ZM5.74182 14.0431C5.74182 10.5462 8.84943 7.70124 12.6692 7.70124C16.4889 7.70124 19.5965 10.5462 19.5965 14.0431C19.5965 17.54 16.4889 20.3849 12.6692 20.3849C8.84943 20.3849 5.74182 17.54 5.74182 14.0431V14.0431Z" fill="black"/>
<path d="M13.6804 17.6386C13.9279 17.6799 14.1729 17.7003 14.4139 17.7003C15.3442 17.7003 16.2122 17.3958 16.9121 16.8139C18.0882 15.836 18.761 14.4982 18.7117 13.2351C18.6715 12.2045 18.1569 11.3106 17.2233 10.6503C15.6668 9.54912 14.4313 10.6305 13.4387 11.4995C12.8242 12.0374 12.2438 12.5454 11.6618 12.5753C10.9685 12.6109 10.5944 12.407 10.1984 12.1913C9.64996 11.8924 9.0283 11.5536 7.78761 11.9658C7.78304 11.9673 7.779 11.9696 7.77478 11.9718C7.30066 12.1062 6.61068 12.5167 6.62369 13.7666C6.63371 14.7446 7.04219 15.5553 7.8049 16.1108C8.54533 16.6502 9.50012 16.8625 10.3853 16.8625C10.8265 16.8625 11.2495 16.8091 11.621 16.7178C12.1937 17.1838 12.9092 17.5098 13.6804 17.6386V17.6386ZM11.7068 13.4529C12.5933 13.4075 13.3174 12.7737 14.0176 12.1608C15.076 11.2344 15.7725 10.7004 16.7159 11.3678C17.428 11.8715 17.804 12.5113 17.8336 13.2694C17.8717 14.2465 17.3033 15.3457 16.3503 16.1381C15.6687 16.7048 14.772 16.9298 13.8252 16.7717C12.8455 16.6081 11.9847 16.0567 11.5226 15.2965L11.4027 15.099C10.9702 14.3861 10.5475 13.6892 10.0979 13.1307C10.4872 13.3205 10.9798 13.4903 11.7068 13.4529V13.4529ZM8.32249 15.4004C7.78562 15.0093 7.50974 14.4566 7.50259 13.7574C7.4945 12.979 7.84908 12.8558 8.03138 12.8122C8.91626 12.6958 9.75942 14.0845 10.6513 15.5548L10.7716 15.7531C10.8135 15.8221 10.8586 15.8893 10.9053 15.9555C10.0429 16.0546 9.02449 15.9118 8.32249 15.4004Z" fill="black"/>
<path d="M27.55 24.3602C27.4997 23.069 26.8531 21.9479 25.6802 21.1181C24.8105 20.5028 23.9422 20.3813 23.0259 20.7466C22.8163 20.8301 22.613 20.9366 22.4145 21.0584C22.786 15.3574 22.702 9.58728 22.1641 3.88819C22.331 3.62045 22.6559 3.01866 22.8595 2.11754C22.9798 1.58495 22.7532 1.06114 22.2822 0.782982C21.8185 0.509155 21.2595 0.562655 20.8581 0.919163C20.6507 1.10328 20.4547 1.21742 20.1185 1.21742C19.6771 1.21742 19.4705 1.01479 19.1844 0.734346C18.8506 0.407195 18.4353 0 17.6349 0C16.8346 0 16.4193 0.407195 16.0857 0.734404C15.7997 1.01485 15.593 1.21742 15.1517 1.21742C14.7104 1.21742 14.5038 1.01479 14.2178 0.734346C13.884 0.407195 13.4688 0 12.6684 0C11.8682 0 11.4529 0.407195 11.1192 0.734404C10.8332 1.01485 10.6266 1.21748 10.1853 1.21748C9.74406 1.21748 9.53745 1.01485 9.25143 0.734463C8.91778 0.407195 8.50244 0 7.70217 0C6.90196 0 6.48674 0.407195 6.15308 0.734404C5.86713 1.01485 5.66057 1.21742 5.21939 1.21742C4.88327 1.21742 4.68726 1.10328 4.48 0.919163C4.07861 0.562596 3.51976 0.509155 3.05608 0.782864C2.58507 1.06097 2.35853 1.58471 2.47884 2.11725C2.68217 3.01754 3.00662 3.61905 3.1738 3.88725C3.08157 4.86202 3.00188 5.84183 2.93777 6.8033C2.92166 7.04549 3.10483 7.25486 3.34702 7.27103C3.58932 7.2872 3.79857 7.10397 3.81474 6.86178C3.87516 5.95586 3.94899 5.03336 4.03466 4.11437C9.7661 3.42339 15.572 3.42333 21.3035 4.11437C21.8479 9.9674 21.9091 15.8952 21.4867 21.7423C21.304 21.8948 21.1241 22.052 20.946 22.208L20.8233 22.3153C20.6405 22.4749 20.6217 22.7525 20.7813 22.9353C20.941 23.1181 21.2186 23.1369 21.4014 22.9772L21.5248 22.8693C22.9405 21.6299 23.8739 20.9169 25.1726 21.8355C26.1276 22.511 26.632 23.372 26.6719 24.3943C26.7227 25.697 25.9701 27.1582 24.7079 28.2078C23.7971 28.9649 22.6007 29.2658 21.3388 29.0549C20.0358 28.8372 18.8899 28.1018 18.2735 27.0876L18.117 26.8299C17.4131 25.6698 16.7297 24.5434 15.9764 23.7758C16.0458 23.8122 16.1164 23.8506 16.1891 23.8903C16.7439 24.1925 17.4345 24.5686 18.6147 24.5082C19.0433 24.4863 19.4735 24.3499 19.9298 24.0914C20.1409 23.9717 20.2152 23.7036 20.0955 23.4924C19.9759 23.2813 19.7078 23.2071 19.4966 23.3267C19.1619 23.5163 18.8588 23.6157 18.5698 23.6306C17.6369 23.6784 17.138 23.4064 16.6097 23.1186C15.89 22.7265 15.1458 22.3209 13.5948 22.8362C13.5886 22.8383 13.5828 22.8411 13.5772 22.8443C12.6381 23.1048 12.3134 23.8496 12.2154 24.4912C9.49831 24.4735 6.75002 24.2992 4.03466 23.9717C3.55943 18.8629 3.45097 13.6902 3.71249 8.59164C3.72491 8.34928 3.53852 8.14273 3.29616 8.13025C3.05339 8.11794 2.84718 8.30422 2.83476 8.54658C2.56773 13.7529 2.68387 19.0352 3.17867 24.25C3.01289 24.5141 2.68387 25.1185 2.47866 26.0278C2.35824 26.5604 2.58466 27.0842 3.05555 27.3623C3.51924 27.6362 4.07832 27.5827 4.47989 27.226C4.68709 27.0419 4.8831 26.9278 5.21951 26.9278C5.66104 26.9278 5.86771 27.1304 6.15379 27.4108C6.4875 27.7379 6.9029 28.145 7.70323 28.145C8.50326 28.145 8.91848 27.738 9.25208 27.4109C9.53815 27.1304 9.74483 26.9278 10.1864 26.9278C10.6275 26.9278 10.8341 27.1304 11.12 27.4107C11.4537 27.7378 11.869 28.145 12.6695 28.145C13.0664 28.145 13.3635 28.0418 13.5863 27.9187C13.6083 27.9355 13.6294 27.953 13.652 27.9694C14.5859 28.6497 15.7914 28.9175 16.9102 28.9175C17.4954 28.9175 18.0562 28.8438 18.5427 28.718C19.2736 29.3281 20.1965 29.7552 21.1939 29.9218C21.5067 29.9741 21.8164 29.9999 22.1209 29.9999C23.2938 29.9999 24.3879 29.6165 25.2695 28.8837C26.7597 27.6447 27.6121 25.9537 27.55 24.3602V24.3602ZM3.82301 3.25533C3.68173 2.99534 3.47664 2.54601 3.33606 1.92364C3.28326 1.68996 3.45044 1.57071 3.50295 1.53971C3.56652 1.50215 3.7323 1.43049 3.89637 1.57622C4.16897 1.81834 4.56567 2.09627 5.21945 2.09627C6.01966 2.09627 6.43488 1.68908 6.76853 1.36187C7.05449 1.08142 7.26105 0.878847 7.70223 0.878847C8.14353 0.878847 8.35014 1.08148 8.63616 1.36187C8.96981 1.68908 9.3851 2.09627 10.1854 2.09627C10.9857 2.09627 11.401 1.68908 11.7346 1.36187C12.0206 1.08142 12.2273 0.878847 12.6686 0.878847C13.1099 0.878847 13.3165 1.08148 13.6025 1.36193C13.9363 1.68914 14.3515 2.09633 15.1519 2.09633C15.9521 2.09633 16.3674 1.68914 16.7011 1.36193C16.987 1.08148 17.1937 0.878847 17.6351 0.878847C18.0764 0.878847 18.2831 1.08148 18.5692 1.36193C18.9029 1.68914 19.3182 2.09633 20.1185 2.09633C20.7724 2.09633 21.1692 1.8184 21.4417 1.57628C21.6059 1.43043 21.7718 1.50215 21.8353 1.53977C21.8878 1.57077 22.0551 1.69007 22.0023 1.92382C21.8616 2.54642 21.6564 2.9958 21.5155 3.25533C15.6439 2.53868 9.69437 2.53868 3.82301 3.25533V3.25533ZM11.7353 26.7832C11.4017 26.4561 10.9865 26.0491 10.1864 26.0491C9.38592 26.0491 8.97063 26.4562 8.63692 26.7833C8.35102 27.0636 8.14441 27.2662 7.70328 27.2662C7.26175 27.2662 7.05508 27.0636 6.769 26.7832C6.43529 26.4561 6.01989 26.0491 5.21956 26.0491C4.56544 26.0491 4.16873 26.3269 3.89631 26.569C3.732 26.7149 3.56623 26.6433 3.50259 26.6057C3.45015 26.5747 3.28315 26.4555 3.33606 26.2216C3.48713 25.552 3.71302 25.083 3.85371 24.8346C6.62186 25.1714 9.4243 25.3514 12.1951 25.37C12.257 26.082 12.4963 26.7149 12.9028 27.244C12.8337 27.258 12.7568 27.2662 12.6697 27.2662C12.2281 27.2662 12.0214 27.0636 11.7353 26.7832ZM14.1696 27.2592C13.4408 26.7283 13.0663 25.979 13.0566 25.032C13.046 24.0147 13.4937 23.7693 13.8479 23.6816C15.0762 23.5149 16.1888 25.3465 17.3656 27.2859L17.5224 27.5443C17.612 27.6916 17.7107 27.8338 17.8174 27.9709C16.6313 28.1531 15.1639 27.9834 14.1696 27.2592V27.2592Z" fill="black"/>
<path d="M24.9206 26.1292L24.8988 26.142C24.6894 26.2648 24.6192 26.534 24.742 26.7433C24.8238 26.8829 24.9707 26.9606 25.1215 26.9606C25.197 26.9606 25.2735 26.9411 25.3434 26.9002L25.3653 26.8873C25.5746 26.7646 25.6448 26.4953 25.522 26.286C25.3991 26.0766 25.1301 26.0064 24.9206 26.1292Z" fill="black"/>
<path d="M25.7462 25.9428C25.8217 25.9428 25.8982 25.9234 25.9681 25.8824L25.99 25.8696C26.1993 25.7468 26.2695 25.4776 26.1468 25.2683C26.024 25.0589 25.7548 24.9887 25.5454 25.1115L25.5235 25.1243C25.3142 25.2471 25.244 25.5163 25.3668 25.7256C25.4485 25.8651 25.5954 25.9428 25.7462 25.9428Z" fill="black"/>
<path d="M24.3152 25.0958L24.2933 25.1087C24.084 25.2314 24.0138 25.5007 24.1366 25.71C24.2184 25.8495 24.3652 25.9272 24.5161 25.9272C24.5916 25.9272 24.6681 25.9078 24.738 25.8668L24.7598 25.854C24.9692 25.7312 25.0394 25.462 24.9166 25.2527C24.7938 25.0432 24.5246 24.9731 24.3152 25.0958Z" fill="black"/>
</svg>
