<svg width="60" height="10" viewBox="0 0 60 10" fill="none" xmlns="http://www.w3.org/2000/svg">
<g clip-path="url(#clip0_1_202)">
<path d="M9.97394 3.83598C9.90847 3.6335 9.72887 3.48968 9.51639 3.47053L6.63011 3.20845L5.4888 0.537102C5.40465 0.341327 5.21299 0.2146 5.00005 0.2146C4.78711 0.2146 4.59545 0.341327 4.5113 0.53756L3.36999 3.20845L0.483257 3.47053C0.271154 3.49014 0.0920116 3.6335 0.0261682 3.83598C-0.0396751 4.03847 0.0211327 4.26057 0.181583 4.40057L2.36326 6.31392L1.71994 9.14778C1.67286 9.35615 1.75374 9.57153 1.92662 9.6965C2.01955 9.76364 2.12827 9.79782 2.23791 9.79782C2.33244 9.79782 2.42621 9.77234 2.51036 9.72198L5.00005 8.23399L7.48882 9.72198C7.67094 9.83155 7.90052 9.82155 8.07302 9.6965C8.24599 9.57115 8.32678 9.35569 8.27971 9.14778L7.63638 6.31392L9.81806 4.40096C9.97851 4.26057 10.0398 4.03886 9.97394 3.83598Z" fill="#FFC107"/>
</g>
<g clip-path="url(#clip1_1_202)">
<path d="M22.4739 3.83598C22.4085 3.6335 22.2289 3.48968 22.0164 3.47053L19.1301 3.20845L17.9888 0.537102C17.9046 0.341327 17.713 0.2146 17.5001 0.2146C17.2871 0.2146 17.0955 0.341327 17.0113 0.53756L15.87 3.20845L12.9833 3.47053C12.7712 3.49014 12.592 3.6335 12.5262 3.83598C12.4603 4.03847 12.5211 4.26057 12.6816 4.40057L14.8633 6.31392L14.2199 9.14778C14.1729 9.35615 14.2537 9.57153 14.4266 9.6965C14.5196 9.76364 14.6283 9.79782 14.7379 9.79782C14.8324 9.79782 14.9262 9.77234 15.0104 9.72198L17.5001 8.23399L19.9888 9.72198C20.1709 9.83155 20.4005 9.82155 20.573 9.6965C20.746 9.57115 20.8268 9.35569 20.7797 9.14778L20.1364 6.31392L22.3181 4.40096C22.4785 4.26057 22.5398 4.03886 22.4739 3.83598Z" fill="#FFC107"/>
</g>
<g clip-path="url(#clip2_1_202)">
<path d="M34.9739 3.83598C34.9085 3.6335 34.7289 3.48968 34.5164 3.47053L31.6301 3.20845L30.4888 0.537102C30.4046 0.341327 30.213 0.2146 30.0001 0.2146C29.7871 0.2146 29.5955 0.341327 29.5113 0.53756L28.37 3.20845L25.4833 3.47053C25.2712 3.49014 25.092 3.6335 25.0262 3.83598C24.9603 4.03847 25.0211 4.26057 25.1816 4.40057L27.3633 6.31392L26.7199 9.14778C26.6729 9.35615 26.7537 9.57153 26.9266 9.6965C27.0196 9.76364 27.1283 9.79782 27.2379 9.79782C27.3324 9.79782 27.4262 9.77234 27.5104 9.72198L30.0001 8.23399L32.4888 9.72198C32.6709 9.83155 32.9005 9.82155 33.073 9.6965C33.246 9.57115 33.3268 9.35569 33.2797 9.14778L32.6364 6.31392L34.8181 4.40096C34.9785 4.26057 35.0398 4.03886 34.9739 3.83598Z" fill="#FFC107"/>
</g>
<g clip-path="url(#clip3_1_202)">
<path d="M47.4739 3.83598C47.4085 3.6335 47.2289 3.48968 47.0164 3.47053L44.1301 3.20845L42.9888 0.537102C42.9046 0.341327 42.713 0.2146 42.5001 0.2146C42.2871 0.2146 42.0955 0.341327 42.0113 0.53756L40.87 3.20845L37.9833 3.47053C37.7712 3.49014 37.592 3.6335 37.5262 3.83598C37.4603 4.03847 37.5211 4.26057 37.6816 4.40057L39.8633 6.31392L39.2199 9.14778C39.1729 9.35615 39.2537 9.57153 39.4266 9.6965C39.5196 9.76364 39.6283 9.79782 39.7379 9.79782C39.8324 9.79782 39.9262 9.77234 40.0104 9.72198L42.5001 8.23399L44.9888 9.72198C45.1709 9.83155 45.4005 9.82155 45.573 9.6965C45.746 9.57115 45.8268 9.35569 45.7797 9.14778L45.1364 6.31392L47.3181 4.40096C47.4785 4.26057 47.5398 4.03886 47.4739 3.83598Z" fill="#FFC107"/>
</g>
<g clip-path="url(#clip4_1_202)">
<path d="M59.9739 3.83598C59.9085 3.6335 59.7289 3.48968 59.5164 3.47053L56.6301 3.20845L55.4888 0.537102C55.4046 0.341327 55.213 0.2146 55.0001 0.2146C54.7871 0.2146 54.5955 0.341327 54.5113 0.53756L53.37 3.20845L50.4833 3.47053C50.2712 3.49014 50.092 3.6335 50.0262 3.83598C49.9603 4.03847 50.0211 4.26057 50.1816 4.40057L52.3633 6.31392L51.7199 9.14778C51.6729 9.35615 51.7537 9.57153 51.9266 9.6965C52.0196 9.76364 52.1283 9.79782 52.2379 9.79782C52.3324 9.79782 52.4262 9.77234 52.5104 9.72198L55.0001 8.23399L57.4888 9.72198C57.6709 9.83155 57.9005 9.82155 58.073 9.6965C58.246 9.57115 58.3268 9.35569 58.2797 9.14778L57.6364 6.31392L59.8181 4.40096C59.9785 4.26057 60.0398 4.03886 59.9739 3.83598Z" fill="#FFC107"/>
</g>
<defs>
<clipPath id="clip0_1_202">
<rect width="10" height="10" fill="white"/>
</clipPath>
<clipPath id="clip1_1_202">
<rect width="10" height="10" fill="white" transform="translate(12.5)"/>
</clipPath>
<clipPath id="clip2_1_202">
<rect width="10" height="10" fill="white" transform="translate(25)"/>
</clipPath>
<clipPath id="clip3_1_202">
<rect width="10" height="10" fill="white" transform="translate(37.5)"/>
</clipPath>
<clipPath id="clip4_1_202">
<rect width="10" height="10" fill="white" transform="translate(50)"/>
</clipPath>
</defs>
</svg>
