<svg width="21" height="20" viewBox="0 0 21 20" fill="none" xmlns="http://www.w3.org/2000/svg">
<g clip-path="url(#clip0_1_231)">
<path d="M10.7933 9.63406C12.1168 9.63406 13.2629 9.15936 14.1993 8.22278C15.1358 7.28635 15.6105 6.14057 15.6105 4.81688C15.6105 3.49364 15.1358 2.34771 14.1992 1.41097C13.2626 0.474699 12.1167 0 10.7933 0C9.46959 0 8.32381 0.474699 7.38738 1.41113C6.45096 2.34756 5.9761 3.49349 5.9761 4.81688C5.9761 6.14057 6.45096 7.2865 7.38754 8.22293C8.32412 9.1592 9.47005 9.63406 10.7933 9.63406Z" fill="black" fill-opacity="0.5"/>
<path d="M19.2221 15.379C19.1951 14.9893 19.1404 14.5642 19.06 14.1152C18.9788 13.663 18.8743 13.2354 18.7492 12.8447C18.62 12.4408 18.4442 12.0419 18.2269 11.6597C18.0014 11.2629 17.7365 10.9175 17.4392 10.6332C17.1284 10.3358 16.7479 10.0967 16.3078 9.9223C15.8693 9.74881 15.3833 9.66092 14.8634 9.66092C14.6593 9.66092 14.4618 9.74469 14.0805 9.99295C13.8458 10.146 13.5713 10.323 13.2649 10.5188C13.0029 10.6857 12.648 10.8421 12.2096 10.9837C11.7819 11.1221 11.3477 11.1923 10.919 11.1923C10.4904 11.1923 10.0563 11.1221 9.62815 10.9837C9.19022 10.8422 8.8353 10.6858 8.57362 10.5189C8.27012 10.325 7.99546 10.148 7.75727 9.9928C7.37642 9.74454 7.17881 9.66077 6.97465 9.66077C6.45464 9.66077 5.9688 9.74881 5.53041 9.92245C5.09066 10.0966 4.70995 10.3357 4.39883 10.6334C4.10174 10.9178 3.8367 11.2631 3.61148 11.6597C3.39434 12.0419 3.21856 12.4406 3.08917 12.8448C2.9642 13.2356 2.85968 13.663 2.7785 14.1152C2.69809 14.5635 2.64346 14.9888 2.61645 15.3794C2.5899 15.7621 2.57648 16.1593 2.57648 16.5605C2.57648 17.6045 2.90835 18.4496 3.5628 19.073C4.20916 19.688 5.06441 20.0001 6.10445 20.0001H15.7345C16.7746 20.0001 17.6295 19.6882 18.276 19.073C18.9306 18.4501 19.2625 17.6048 19.2625 16.5603C19.2624 16.1573 19.2488 15.7598 19.2221 15.379Z" fill="black" fill-opacity="0.5"/>
</g>
<defs>
<clipPath id="clip0_1_231">
<rect width="19.9999" height="20" fill="white" transform="translate(0.935852)"/>
</clipPath>
</defs>
</svg>
